<svg xmlns="http://www.w3.org/2000/svg" version="1.1" xmlns:xlink="http://www.w3.org/1999/xlink" width="512" height="512" x="0" y="0" viewBox="0 0 78 78" style="enable-background:new 0 0 512 512" xml:space="preserve" class=""><g><path d="M67.91 38.32a15.4 15.4 0 0 1-10 3.69h-.77a19 19 0 0 1 3.26 10.66v11.42h16.1V52.67a16.28 16.28 0 0 0-8.59-14.35zM51 36.25c-.16.2-.31.38-.48.56a12.52 12.52 0 0 0 7.36 2.38 12.64 12.64 0 1 0 0-25.27 12.54 12.54 0 0 0-7.36 2.38 15.41 15.41 0 0 1 .48 20zM20.09 42a15.4 15.4 0 0 1-10-3.69A16.28 16.28 0 0 0 1.5 52.67v11.42h16.1V52.67A19 19 0 0 1 20.86 42h-.77zM20.09 39.19a12.52 12.52 0 0 0 7.36-2.38c-.17-.18-.32-.36-.48-.56a15.41 15.41 0 0 1 .48-19.95 12.63 12.63 0 0 0-20 10.25 12.66 12.66 0 0 0 12.64 12.64zM49 38.31a15.4 15.4 0 0 1-20 0 16.32 16.32 0 0 0-8.59 14.35v11.42h37.18V52.66A16.32 16.32 0 0 0 49 38.31z" fill="#000000" opacity="1" data-original="#000000" class=""></path><path d="M39 39.19a12.64 12.64 0 1 0-12.65-12.65A12.67 12.67 0 0 0 39 39.19z" fill="#000000" opacity="1" data-original="#000000" class=""></path></g></svg>